inDegrees=yes
name=ik_S56_A06_T02
DataType=double
version=3
OpenSimVersion=4.3-2021-08-27-4bc7ad9
endheader
time	pelvis_tilt	pelvis_list	pelvis_rotation	pelvis_tx	pelvis_ty	pelvis_tz	hip_flexion_r	hip_adduction_r	hip_rotation_r	knee_angle_r	knee_angle_r_beta	ankle_angle_r	subtalar_angle_r	mtp_angle_r	hip_flexion_l	hip_adduction_l	hip_rotation_l	knee_angle_l	knee_angle_l_beta	ankle_angle_l	subtalar_angle_l	mtp_angle_l	lumbar_extension	lumbar_bending	lumbar_rotation	arm_flex_r	arm_add_r	arm_rot_r	elbow_flex_r	pro_sup_r	wrist_flex_r	wrist_dev_r	arm_flex_l	arm_add_l	arm_rot_l	elbow_flex_l	pro_sup_l	wrist_flex_l	wrist_dev_l
6.439999999999951	-7.396224806927147	-1.477208547261941	32.310390471417	0	0.9399999999999999	0	33.4298405422286	-13.45964533052444	-10.00347730684051	49.79032145101463	0.8690050449465659	0	0	0	33.4298405422286	-13.45964533052444	-10.00347730684051	49.79032145101463	0.8690050449465659	0	0	0	-5.843315627083308	1.005415337239802	-3.522508439619708	33.10742860757373	-11.38467555757184	6.551084861020206	41.23949484164527	128.6292842310054	0	0	48.14291961395332	-6.071851722162366	3.297807602973308	77.24850048979336	127.0306607097953	0	0
6.45999999999995	-7.452952327821372	-1.471146416477852	32.19211613280427	0	0.9399999999999999	0	33.43565090361989	-13.45368611556217	-10.0034734905971	49.79204547295239	0.8690351348057563	0	0	0	33.43565090361989	-13.45368611556217	-10.0034734905971	49.79204547295239	0.8690351348057563	0	0	0	-5.887160343432981	1.035069133901679	-3.465643935839789	33.17695763628574	-11.38323698079782	6.689753641920481	41.31898747820384	128.5315714635339	0	0	48.26369882043713	-5.91480732018694	3.583184507782349	76.12143730541823	126.3451625963963	0	0
6.47999999999995	-7.475235509196046	-1.449208465586627	32.10939734516045	0	0.9399999999999999	0	33.44009889458449	-13.44913732942578	-10.00347057401516	49.79336787378526	0.8690582150543211	0	0	0	33.44009889458449	-13.44913732942578	-10.00347057401516	49.79336787378526	0.8690582150543211	0	0	0	-5.893200024651467	1.05842169848167	-3.399108365117975	33.170806429749	-11.39544051162654	6.722650935463449	41.34567977249965	128.4988828359001	0	0	48.23092567665199	-5.74910780653642	3.829679316913658	75.19828629623048	125.643075003525	0	0
6.499999999999949	-7.510983643747539	-1.445551643196491	32.05042242495801	0	0.9399999999999999	0	33.44482906383209	-13.44436892361683	-10.00346750039461	49.79479352421757	0.8690830973483473	0	0	0	33.44482906383209	-13.44436892361683	-10.00346750039461	49.79479352421757	0.8690830973483473	0	0	0	-5.921348659756934	1.078318487059925	-3.369377203615074	33.23089066396524	-11.36947252744356	6.732988123239508	41.38818891567724	128.4869037089789	0	0	48.2981774080268	-5.778973875213764	3.85706905379126	74.34014803643528	124.9374473896786	0	0
6.519999999999949	-7.539547828950368	-1.438553493225929	31.9880471365112	0	0.9399999999999999	0	33.44789544464965	-13.44122990345168	-10.00346548789768	49.79570303573897	0.8690989713189806	0	0	0	33.44789544464965	-13.44122990345168	-10.00346548789768	49.79570303573897	0.8690989713189806	0	0	0	-5.941118641602357	1.09420655001096	-3.320451157552538	33.27301846315991	-11.36323188013243	6.699544239156477	41.43090942762711	128.3677216286702	0	0	48.10587476925034	-5.457831873668891	4.133491560147828	74.12756304516209	124.905214837506	0	0
6.539999999999949	-7.567131098355079	-1.416034702367105	31.88925908241805	0	0.9399999999999999	0	33.45239391761307	-13.43667646136084	-10.00346255628204	49.79705138343828	0.8691225044257953	0	0	0	33.45239391761307	-13.43667646136084	-10.00346255628204	49.79705138343828	0.8691225044257953	0	0	0	-5.951676984562345	1.121803469787186	-3.256082225171278	33.31843806578159	-11.3722721289861	6.724384502205078	41.42100710313921	128.4251552013199	0	0	48.06583938236719	-5.292581417510716	4.180778431548172	72.65105808204214	124.3772345682179	0	0
6.559999999999948	-7.580216547459226	-1.411749117212372	31.85482820505954	0	0.9399999999999999	0	33.45675145334278	-13.43222696814892	-10.00345970010807	49.7983451223819	0.8691450844300226	0	0	0	33.45675145334278	-13.43222696814892	-10.00345970010807	49.7983451223819	0.8691450844300226	0	0	0	-5.960456191662113	1.130517507311814	-3.234969531303413	33.34988326064869	-11.33438051023763	6.686832243085602	41.43806151841885	128.3976969033727	0	0	48.01782615246338	-5.136283107402937	4.194187701804512	72.40843008042815	124.384726416142	0	0
6.579999999999948	-7.604818482907339	-1.395760533592478	31.83445753756171	0	0.9399999999999999	0	33.46106583944641	-13.42791809654775	-10.00345691183334	49.79965404236408	0.869167929393357	0	0	0	33.46106583944641	-13.42791809654775	-10.00345691183334	49.79965404236408	0.869167929393357	0	0	0	-5.973475111808975	1.158243159115479	-3.234920253812583	33.39387938363742	-11.31313958216377	6.66899500852924	41.41439865082327	128.4791570902884	0	0	48.02663979588932	-5.035413650512278	4.103063413925562	71.7011040860673	124.618238667671	0	0
6.599999999999947	-7.629652318769745	-1.369898002585392	31.7804016770173	0	0.9399999999999999	0	33.47773947365243	-13.42631663601042	-10.00345127969647	49.80558169390329	0.869271386429627	0	0	0	33.47773947365243	-13.42631663601042	-10.00345127969647	49.80558169390329	0.869271386429627	0	0	0	-5.981730237811249	1.190756409845536	-3.189234002179323	33.43221066973479	-11.37837105376479	6.707327125816908	41.51306239174389	128.2914635839304	0	0	48.02350871013266	-4.793536141077907	3.987879416298754	71.56874040792036	124.9909203569037	0	0
6.619999999999947	-7.654684153126194	-1.339036555710682	31.73557184413712	0	0.9399999999999999	0	33.48260792424235	-13.42136284915463	-10.00344809726593	49.8070319313668	0.869296697848301	0	0	0	33.48260792424235	-13.42136284915463	-10.00344809726593	49.8070319313668	0.869296697848301	0	0	0	-5.986331853890396	1.225856045611139	-3.145419216928327	33.46260814984873	-11.38087339387642	6.661744003472338	41.51895684823287	128.3404532225825	0	0	48.03126448815774	-4.4988843009992	3.915818743550025	71.46537201596321	125.3873584657358	0	0
6.639999999999946	-7.675550343460983	-1.312037388069032	31.69984338361829	0	0.9399999999999999	0	33.48567415971206	-13.41825085895505	-10.00344609589686	49.80794696164502	0.8693126681394113	0	0	0	33.48567415971206	-13.41825085895505	-10.00344609589686	49.80794696164502	0.8693126681394113	0	0	0	-5.989433579670123	1.25535680811585	-3.10212123547449	33.56944605108541	-11.33094958742796	6.592662630726257	41.46344587291313	128.3853078172375	0	0	48.14272257446515	-4.215779056772719	3.938882198432218	71.37918528712086	125.9083820968531	0	0
6.659999999999946	-7.677738002874769	-1.25798095687158	31.6668557651288	0	0.9399999999999999	0	33.48906054296283	-13.41480169132054	-10.00344388032601	49.80895352700583	0.869330236019094	0	0	0	33.48906054296283	-13.41480169132054	-10.00344388032601	49.80895352700583	0.869330236019094	0	0	0	-5.962428225844783	1.297984881616063	-3.057383152285173	33.52348321149319	-11.42589992745939	6.628496022354363	41.49478500289114	128.3014315937288	0	0	48.288544551761	-3.917961389367011	4.039334340970276	71.34020348015463	126.1074168229055	0	0
6.679999999999946	-7.696442458672587	-1.147241385983414	31.54931267385551	0	0.9399999999999999	0	33.49359038012877	-13.41019104289648	-10.00344091746055	49.81029981048535	0.8693537330984769	0	0	0	33.49359038012877	-13.41019104289648	-10.00344091746055	49.81029981048535	0.8693537330984769	0	0	0	-5.919643109345812	1.395937547947414	-2.993704119648646	33.52993824659532	-11.50736298531798	6.788033462339077	41.48142703048563	128.2782601908999	0	0	48.42388537709711	-3.582932786002598	4.179182305937794	71.24122671273874	125.1094499507901	0	0
6.699999999999945	-7.721876258561672	-1.083748329304611	31.39881477284807	0	0.9399999999999999	0	33.49831911109658	-13.40538329015036	-10.00343782616228	49.81170556997345	0.8693782682300354	0	0	0	33.49831911109658	-13.40538329015036	-10.00343782616228	49.81170556997345	0.8693782682300354	0	0	0	-5.906842232935808	1.454590062718409	-2.907804333104083	33.6853345290519	-11.49249640533495	6.870018120617542	41.37886268670051	128.3068946267705	0	0	48.67470169190229	-3.363630032340037	4.49481604207676	70.99439601335611	123.516158073044	0	0
